<mxfile host="app.diagrams.net" agent="Mozilla/5.0 (Windows NT 10.0; Win64; x64) AppleWebKit/537.36 (KHTML, like Gecko) Chrome/131.0.0.0 Safari/537.36" version="24.9.3">
  <diagram name="第 1 页" id="UH8iGU-1JYSJTxdWdX_r">
    <mxGraphModel dx="1434" dy="772" grid="1" gridSize="10" guides="1" tooltips="1" connect="1" arrows="1" fold="1" page="1" pageScale="1" pageWidth="1654" pageHeight="1169" math="0" shadow="0">
      <root>
        <mxCell id="0" />
        <mxCell id="1" parent="0" />
        <mxCell id="2E7t6yJ7H8E1ZwlFjmu7-1" value="商标查询" style="swimlane;childLayout=stackLayout;resizeParent=1;resizeParentMax=0;startSize=20;html=1;" vertex="1" parent="1">
          <mxGeometry x="340" y="30" width="520" height="670" as="geometry" />
        </mxCell>
        <mxCell id="2E7t6yJ7H8E1ZwlFjmu7-2" value="前端页面" style="swimlane;startSize=20;html=1;" vertex="1" parent="2E7t6yJ7H8E1ZwlFjmu7-1">
          <mxGeometry y="20" width="190" height="650" as="geometry" />
        </mxCell>
        <mxCell id="2E7t6yJ7H8E1ZwlFjmu7-3" value="" style="edgeStyle=orthogonalEdgeStyle;rounded=0;orthogonalLoop=1;jettySize=auto;html=1;" edge="1" parent="2E7t6yJ7H8E1ZwlFjmu7-2" source="2E7t6yJ7H8E1ZwlFjmu7-4" target="2E7t6yJ7H8E1ZwlFjmu7-6">
          <mxGeometry relative="1" as="geometry" />
        </mxCell>
        <mxCell id="2E7t6yJ7H8E1ZwlFjmu7-4" value="开始" style="rounded=1;whiteSpace=wrap;html=1;" vertex="1" parent="2E7t6yJ7H8E1ZwlFjmu7-2">
          <mxGeometry x="20" y="60" width="120" height="60" as="geometry" />
        </mxCell>
        <mxCell id="2E7t6yJ7H8E1ZwlFjmu7-6" value="消费者&lt;div&gt;输入商标名称作为查询条件&lt;/div&gt;" style="rounded=0;whiteSpace=wrap;html=1;" vertex="1" parent="2E7t6yJ7H8E1ZwlFjmu7-2">
          <mxGeometry x="20" y="150" width="120" height="60" as="geometry" />
        </mxCell>
        <mxCell id="2E7t6yJ7H8E1ZwlFjmu7-7" value="&lt;div&gt;将 tag_id 作为参数传入查询商标接口&lt;/div&gt;" style="whiteSpace=wrap;html=1;rounded=0;" vertex="1" parent="2E7t6yJ7H8E1ZwlFjmu7-2">
          <mxGeometry x="20" y="350" width="120" height="60" as="geometry" />
        </mxCell>
        <mxCell id="2E7t6yJ7H8E1ZwlFjmu7-8" value="展示商标列表" style="whiteSpace=wrap;html=1;rounded=1;" vertex="1" parent="2E7t6yJ7H8E1ZwlFjmu7-2">
          <mxGeometry x="30" y="560" width="120" height="60" as="geometry" />
        </mxCell>
        <mxCell id="2E7t6yJ7H8E1ZwlFjmu7-26" value="" style="edgeStyle=orthogonalEdgeStyle;rounded=0;orthogonalLoop=1;jettySize=auto;html=1;" edge="1" parent="2E7t6yJ7H8E1ZwlFjmu7-2" source="2E7t6yJ7H8E1ZwlFjmu7-25" target="2E7t6yJ7H8E1ZwlFjmu7-7">
          <mxGeometry relative="1" as="geometry" />
        </mxCell>
        <mxCell id="2E7t6yJ7H8E1ZwlFjmu7-25" value="通过查验结果确定tag_id是否正确" style="rhombus;whiteSpace=wrap;html=1;" vertex="1" parent="2E7t6yJ7H8E1ZwlFjmu7-2">
          <mxGeometry x="40" y="240" width="80" height="80" as="geometry" />
        </mxCell>
        <mxCell id="2E7t6yJ7H8E1ZwlFjmu7-5" value="" style="edgeStyle=orthogonalEdgeStyle;rounded=0;orthogonalLoop=1;jettySize=auto;html=1;entryX=0.5;entryY=0;entryDx=0;entryDy=0;" edge="1" parent="2E7t6yJ7H8E1ZwlFjmu7-2" source="2E7t6yJ7H8E1ZwlFjmu7-6" target="2E7t6yJ7H8E1ZwlFjmu7-25">
          <mxGeometry relative="1" as="geometry">
            <mxPoint x="80" y="260" as="targetPoint" />
          </mxGeometry>
        </mxCell>
        <mxCell id="2E7t6yJ7H8E1ZwlFjmu7-29" value="no" style="text;html=1;align=center;verticalAlign=middle;resizable=0;points=[];autosize=1;strokeColor=none;fillColor=none;" vertex="1" parent="2E7t6yJ7H8E1ZwlFjmu7-2">
          <mxGeometry x="150" y="250" width="40" height="30" as="geometry" />
        </mxCell>
        <mxCell id="2E7t6yJ7H8E1ZwlFjmu7-9" value="" style="edgeStyle=orthogonalEdgeStyle;rounded=0;orthogonalLoop=1;jettySize=auto;html=1;" edge="1" parent="2E7t6yJ7H8E1ZwlFjmu7-1" source="2E7t6yJ7H8E1ZwlFjmu7-7" target="2E7t6yJ7H8E1ZwlFjmu7-16">
          <mxGeometry relative="1" as="geometry" />
        </mxCell>
        <mxCell id="2E7t6yJ7H8E1ZwlFjmu7-10" value="后端接口" style="swimlane;startSize=20;html=1;" vertex="1" parent="2E7t6yJ7H8E1ZwlFjmu7-1">
          <mxGeometry x="190" y="20" width="330" height="650" as="geometry" />
        </mxCell>
        <mxCell id="2E7t6yJ7H8E1ZwlFjmu7-15" value="" style="edgeStyle=orthogonalEdgeStyle;rounded=0;orthogonalLoop=1;jettySize=auto;html=1;entryX=1;entryY=0.5;entryDx=0;entryDy=0;exitX=1;exitY=0.5;exitDx=0;exitDy=0;" edge="1" parent="2E7t6yJ7H8E1ZwlFjmu7-10" source="2E7t6yJ7H8E1ZwlFjmu7-16" target="2E7t6yJ7H8E1ZwlFjmu7-22">
          <mxGeometry relative="1" as="geometry">
            <mxPoint x="190" y="596" as="targetPoint" />
            <Array as="points">
              <mxPoint x="250" y="380" />
              <mxPoint x="250" y="590" />
            </Array>
          </mxGeometry>
        </mxCell>
        <mxCell id="2E7t6yJ7H8E1ZwlFjmu7-16" value="是否存在 tag_id 参数" style="rhombus;whiteSpace=wrap;html=1;rounded=0;" vertex="1" parent="2E7t6yJ7H8E1ZwlFjmu7-10">
          <mxGeometry x="60" y="340" width="80" height="80" as="geometry" />
        </mxCell>
        <mxCell id="2E7t6yJ7H8E1ZwlFjmu7-17" value="" style="edgeStyle=orthogonalEdgeStyle;rounded=0;orthogonalLoop=1;jettySize=auto;html=1;exitX=0.5;exitY=1;exitDx=0;exitDy=0;entryX=0.5;entryY=0;entryDx=0;entryDy=0;" edge="1" parent="2E7t6yJ7H8E1ZwlFjmu7-10" source="2E7t6yJ7H8E1ZwlFjmu7-16" target="2E7t6yJ7H8E1ZwlFjmu7-20">
          <mxGeometry relative="1" as="geometry">
            <mxPoint x="130" y="320" as="sourcePoint" />
            <mxPoint x="100" y="350" as="targetPoint" />
          </mxGeometry>
        </mxCell>
        <mxCell id="2E7t6yJ7H8E1ZwlFjmu7-19" value="" style="edgeStyle=orthogonalEdgeStyle;rounded=0;orthogonalLoop=1;jettySize=auto;html=1;" edge="1" parent="2E7t6yJ7H8E1ZwlFjmu7-10" source="2E7t6yJ7H8E1ZwlFjmu7-20" target="2E7t6yJ7H8E1ZwlFjmu7-22">
          <mxGeometry relative="1" as="geometry" />
        </mxCell>
        <mxCell id="2E7t6yJ7H8E1ZwlFjmu7-20" value="解析 tag_id 获取到客户code，将客户code作为查询条件" style="whiteSpace=wrap;html=1;rounded=0;" vertex="1" parent="2E7t6yJ7H8E1ZwlFjmu7-10">
          <mxGeometry x="40" y="460" width="120" height="60" as="geometry" />
        </mxCell>
        <mxCell id="2E7t6yJ7H8E1ZwlFjmu7-22" value="查询商标" style="whiteSpace=wrap;html=1;rounded=0;" vertex="1" parent="2E7t6yJ7H8E1ZwlFjmu7-10">
          <mxGeometry x="40" y="560" width="120" height="60" as="geometry" />
        </mxCell>
        <mxCell id="2E7t6yJ7H8E1ZwlFjmu7-23" value="no" style="text;html=1;align=center;verticalAlign=middle;resizable=0;points=[];autosize=1;strokeColor=none;fillColor=none;" vertex="1" parent="2E7t6yJ7H8E1ZwlFjmu7-10">
          <mxGeometry x="145" y="350" width="40" height="30" as="geometry" />
        </mxCell>
        <mxCell id="2E7t6yJ7H8E1ZwlFjmu7-21" value="yes" style="text;html=1;align=center;verticalAlign=middle;resizable=0;points=[];autosize=1;strokeColor=none;fillColor=none;" vertex="1" parent="2E7t6yJ7H8E1ZwlFjmu7-10">
          <mxGeometry x="110" y="410" width="40" height="30" as="geometry" />
        </mxCell>
        <mxCell id="2E7t6yJ7H8E1ZwlFjmu7-24" value="" style="edgeStyle=orthogonalEdgeStyle;rounded=0;orthogonalLoop=1;jettySize=auto;html=1;" edge="1" parent="2E7t6yJ7H8E1ZwlFjmu7-1" source="2E7t6yJ7H8E1ZwlFjmu7-22" target="2E7t6yJ7H8E1ZwlFjmu7-8">
          <mxGeometry relative="1" as="geometry" />
        </mxCell>
        <mxCell id="2E7t6yJ7H8E1ZwlFjmu7-28" style="edgeStyle=orthogonalEdgeStyle;rounded=0;orthogonalLoop=1;jettySize=auto;html=1;entryX=0.5;entryY=0;entryDx=0;entryDy=0;" edge="1" parent="2E7t6yJ7H8E1ZwlFjmu7-1" source="2E7t6yJ7H8E1ZwlFjmu7-25" target="2E7t6yJ7H8E1ZwlFjmu7-16">
          <mxGeometry relative="1" as="geometry" />
        </mxCell>
        <mxCell id="2E7t6yJ7H8E1ZwlFjmu7-27" value="yes" style="text;html=1;align=center;verticalAlign=middle;resizable=0;points=[];autosize=1;strokeColor=none;fillColor=none;" vertex="1" parent="1">
          <mxGeometry x="380" y="368" width="40" height="30" as="geometry" />
        </mxCell>
      </root>
    </mxGraphModel>
  </diagram>
</mxfile>
